<?xml version="1.0" standalone="no"?>
<!DOCTYPE svg PUBLIC "-//W3C//DTD SVG 20010904//EN"
 "http://www.w3.org/TR/2001/REC-SVG-20010904/DTD/svg10.dtd">
<svg version="1.0" xmlns="http://www.w3.org/2000/svg"
 width="1024.000000pt" height="1024.000000pt" viewBox="0 0 1024.000000 1024.000000"
 preserveAspectRatio="xMidYMid meet">

<g transform="translate(0.000000,1024.000000) scale(0.100000,-0.100000)"
fill="#000000" stroke="none">
<path d="M0 5120 l0 -5120 4720 0 4720 0 0 80 0 80 320 0 320 0 0 -80 0 -80
80 0 80 0 0 5120 0 5120 -5120 0 -5120 0 0 -5120z m4222 2960 c26 -96 72 -283
103 -415 31 -132 69 -294 86 -360 57 -228 128 -530 129 -547 0 -17 -20 -18
-279 -18 l-279 0 -16 73 c-9 39 -23 111 -31 158 -8 48 -20 111 -26 140 l-12
54 -32 -135 c-18 -74 -39 -173 -48 -220 -26 -140 -75 -365 -118 -540 -58 -238
-75 -313 -99 -425 -31 -145 -69 -303 -85 -355 -23 -72 -51 -192 -115 -491 -60
-283 -105 -475 -120 -513 -4 -12 -20 -74 -35 -138 l-28 -118 -279 0 c-261 0
-279 1 -274 18 3 9 19 80 35 157 37 178 49 227 72 295 9 30 25 96 34 145 14
80 76 356 166 735 16 69 47 195 69 280 22 85 56 234 76 330 19 96 42 202 49
235 8 33 26 112 40 175 14 63 34 149 45 190 75 275 92 343 145 600 55 262 151
650 170 680 2 4 9 38 15 76 5 38 12 79 15 92 l5 22 288 -2 287 -3 47 -175z
m1763 -9 c50 -12 120 -33 156 -47 75 -30 245 -153 331 -241 91 -93 200 -296
245 -458 l27 -100 4 -480 3 -479 53 -51 c75 -70 113 -123 183 -250 157 -284
186 -619 78 -917 -35 -97 -117 -249 -174 -324 -161 -211 -439 -373 -718 -419
-48 -8 -117 -19 -153 -25 -41 -7 -184 -10 -385 -8 l-320 3 0 135 0 135 340 5
c348 6 410 12 561 56 120 34 280 129 362 213 115 120 174 222 218 377 23 84
28 118 28 224 0 134 -9 179 -65 335 -20 56 -43 98 -67 124 -20 21 -62 69 -92
105 -30 36 -74 79 -97 96 l-41 30 -5 523 c-4 493 -5 527 -25 604 -39 150 -128
301 -233 396 -74 67 -163 116 -280 154 -83 27 -88 27 -341 28 -248 0 -257 1
-262 20 -8 28 -7 230 0 250 6 15 32 16 293 13 253 -4 296 -7 376 -27z m-140
-867 c110 -28 239 -119 295 -208 74 -116 95 -201 87 -351 -4 -79 -12 -118 -36
-185 l-32 -85 24 -20 c81 -68 189 -330 218 -526 22 -152 -10 -316 -88 -448
-54 -90 -94 -133 -172 -186 -112 -74 -167 -83 -512 -89 -159 -3 -297 -2 -305
1 -11 4 -14 31 -14 138 l0 133 283 4 282 3 68 32 c79 38 108 66 149 151 42 87
47 161 18 252 -12 38 -34 81 -48 95 l-25 25 -953 0 c-525 0 -954 3 -954 8 0
10 -46 201 -70 292 -11 41 -20 83 -20 92 0 16 48 18 784 18 849 0 825 -1 937
56 51 25 135 112 155 160 45 106 21 225 -61 310 -31 31 -67 57 -91 65 -23 8
-120 15 -244 18 l-205 6 -3 119 c-1 66 -1 125 1 130 7 18 458 9 532 -10z
m-1037 -1666 c5 -7 24 -74 41 -148 38 -167 148 -667 161 -735 6 -27 17 -72 25
-100 54 -185 64 -226 67 -275 l3 -55 -269 -3 c-150 -2 -273 1 -278 6 -10 10
-26 73 -67 267 -16 72 -46 200 -68 285 -37 142 -61 247 -143 625 -16 71 -26
133 -24 137 3 4 126 8 273 8 203 0 271 -3 279 -12z m-2828 -1678 c0 -6 -35
-10 -86 -10 -84 0 -87 -1 -120 -34 -24 -24 -34 -43 -34 -65 0 -72 46 -111 132
-111 24 0 37 -4 33 -10 -9 -14 -70 -12 -109 4 -69 29 -95 101 -61 167 27 51
69 69 163 69 48 0 82 -4 82 -10z m258 -2 c-3 -7 -16 -15 -31 -19 -91 -24 -154
-140 -128 -236 45 -168 245 -207 341 -66 25 37 36 110 26 168 -9 48 -61 104
-120 130 -52 23 -52 38 -1 24 44 -12 105 -67 126 -113 25 -55 25 -145 0 -194
-83 -161 -295 -162 -375 0 -44 87 -27 184 44 254 45 45 128 82 118 52z m602 2
c0 -6 -44 -10 -111 -10 -122 0 -165 -14 -176 -58 -6 -24 -1 -66 12 -94 12 -28
-11 -21 -23 7 -27 58 -8 125 42 149 36 18 256 23 256 6z m400 0 c0 -6 -63 -10
-169 -10 -103 0 -172 4 -176 10 -4 7 55 10 169 10 111 0 176 -4 176 -10z m151
-190 c41 -104 77 -190 80 -190 3 0 39 84 78 188 40 103 77 191 82 197 16 17
10 -20 -15 -81 -13 -32 -49 -125 -81 -206 -31 -82 -60 -148 -64 -148 -8 0
-171 409 -171 429 0 33 23 -15 91 -189z m363 15 c-36 -94 -73 -189 -82 -213
-9 -23 -21 -41 -26 -39 -5 2 -22 36 -38 77 -39 102 -41 110 -30 110 6 0 23
-35 40 -77 l29 -77 68 175 c75 191 96 239 102 224 2 -6 -26 -87 -63 -180z
m226 181 c0 -2 -27 -73 -61 -157 -34 -85 -70 -179 -81 -209 -11 -30 -24 -59
-29 -64 -18 -19 -20 3 -4 40 9 22 44 109 77 194 33 85 64 165 69 178 7 18 29
32 29 18z m238 -213 c-2 -162 -6 -217 -15 -221 -10 -3 -13 45 -13 217 0 191 2
221 15 221 13 0 15 -28 13 -217z m252 192 c38 -34 52 -78 37 -121 -18 -56 -54
-77 -142 -84 l-75 -5 112 -99 c61 -55 106 -102 100 -104 -11 -3 -243 199 -250
219 -2 5 33 9 81 9 71 0 89 4 118 23 29 19 34 29 37 69 3 40 0 48 -28 72 -29
24 -39 26 -121 26 -58 0 -89 4 -89 11 0 7 32 10 99 7 82 -2 103 -6 121 -23z
m360 15 c0 -6 -35 -10 -86 -10 -84 0 -87 -1 -120 -34 -26 -26 -34 -42 -34 -71
0 -66 10 -73 90 -67 48 3 70 1 70 -7 0 -7 -21 -11 -57 -11 -41 0 -54 -3 -43
-10 8 -5 34 -10 58 -10 23 0 42 -4 42 -10 0 -14 -67 -13 -108 2 -31 12 -35 11
-53 -12 -21 -29 -24 -77 -7 -115 19 -42 56 -55 158 -55 53 0 90 -4 90 -10 0
-13 -170 -13 -205 0 -49 19 -75 59 -75 117 0 35 20 78 43 94 6 4 3 17 -7 30
-19 28 -21 84 -3 119 7 13 28 35 46 47 29 19 47 23 117 23 49 0 84 -4 84 -10z
m620 0 c0 -6 -35 -10 -86 -10 -84 0 -87 -1 -120 -34 -36 -36 -45 -86 -24 -127
15 -27 63 -49 110 -49 22 0 40 -4 40 -10 0 -16 -79 -12 -116 6 -67 32 -86 126
-37 184 14 18 36 36 47 40 30 12 186 12 186 0z m260 0 c0 -6 -8 -13 -17 -16
-77 -23 -135 -88 -148 -164 -21 -122 81 -236 202 -227 120 9 194 119 169 252
-9 48 -67 110 -121 131 -52 19 -52 37 0 22 186 -58 195 -336 13 -412 -143 -60
-303 67 -285 225 10 85 54 144 132 180 46 21 55 23 55 9z m300 -211 c0 -144
-3 -218 -10 -214 -6 4 -10 86 -10 214 0 183 3 221 17 221 2 0 3 -99 3 -221z
m307 -109 c15 -35 63 -77 96 -85 31 -8 37 -25 8 -25 -23 0 -79 38 -103 71 -11
14 -23 43 -28 65 -11 47 -13 288 -2 298 4 4 10 -61 13 -146 3 -84 10 -164 16
-178z m313 187 c0 -148 -9 -192 -47 -238 -23 -26 -76 -59 -98 -59 -16 0 -1 19
24 30 41 17 77 59 90 105 6 22 11 100 11 173 0 86 4 131 10 127 6 -4 10 -61
10 -138z m400 133 c0 -6 -65 -10 -175 -10 -110 0 -175 4 -175 10 0 6 65 10
175 10 110 0 175 -4 175 -10z m70 -15 c0 -14 -4 -25 -10 -25 -5 0 -10 11 -10
25 0 14 5 25 10 25 6 0 10 -11 10 -25z m245 16 c3 -5 -12 -15 -32 -21 -43 -14
-97 -61 -120 -104 -23 -44 -20 -133 6 -183 32 -64 89 -98 166 -98 50 0 69 5
103 28 141 93 102 320 -62 361 -20 5 -26 10 -19 17 14 14 79 -14 116 -49 94
-88 97 -230 8 -319 -63 -62 -149 -79 -226 -44 -195 89 -161 372 52 421 1 0 4
-4 8 -9z m410 -138 c61 -81 123 -164 138 -185 18 -24 24 -38 15 -38 -7 1 -67
73 -133 161 l-120 160 -3 -196 c-1 -119 -6 -195 -12 -195 -6 0 -10 83 -10 220
0 121 3 220 8 220 4 0 57 -67 117 -147z m215 -73 c0 -140 -4 -220 -10 -220 -6
0 -10 80 -10 220 0 140 4 220 10 220 6 0 10 -80 10 -220z m320 210 c0 -6 -33
-10 -80 -10 -96 0 -135 -16 -156 -65 -20 -50 -18 -71 14 -106 24 -27 37 -33
85 -37 68 -5 76 -22 12 -22 -109 0 -172 85 -130 173 28 59 66 77 168 77 51 0
87 -4 87 -10z m-5210 -240 c0 -120 -4 -190 -10 -190 -6 0 -10 70 -10 190 0
120 4 190 10 190 6 0 10 -70 10 -190z m927 173 c3 -10 35 -91 70 -180 63 -164
69 -183 56 -183 -6 0 -103 236 -149 363 -3 10 -1 17 5 17 7 0 14 -8 18 -17z
m2861 -168 c-2 -115 -7 -185 -13 -185 -10 0 -18 347 -8 363 18 30 23 -11 21
-178z m232 -25 c0 -107 -4 -170 -10 -170 -6 0 -10 63 -10 170 0 107 4 170 10
170 6 0 10 -63 10 -170z m-5149 57 c19 -13 40 -39 48 -61 20 -52 0 -111 -48
-143 -30 -20 -46 -23 -132 -23 -59 0 -99 4 -99 10 0 6 40 10 100 10 95 0 101
1 131 28 38 34 44 92 16 136 -22 33 -54 46 -118 46 -27 0 -49 5 -49 10 0 6 26
10 59 10 44 0 66 -6 92 -23z m3459 8 c16 -9 36 -29 45 -45 32 -62 11 -146 -45
-175 -32 -17 -220 -22 -220 -6 0 5 48 11 106 13 102 3 107 4 130 31 26 30 33
92 14 128 -16 29 -64 49 -120 49 -27 0 -50 5 -50 10 0 16 108 12 140 -5z
m2841 -8 c39 -26 59 -60 59 -102 0 -42 -20 -76 -59 -102 -30 -20 -46 -23 -133
-23 -64 0 -97 4 -93 10 3 6 48 10 100 10 90 0 96 1 127 29 28 25 33 36 33 76
0 40 -5 51 -33 76 -28 25 -40 29 -92 29 -33 0 -60 4 -60 10 0 6 26 10 59 10
44 0 66 -6 92 -23z m-5461 -7 c0 -6 -38 -10 -95 -10 -88 0 -98 -2 -120 -25
-22 -22 -25 -32 -25 -105 0 -47 -4 -80 -10 -80 -6 0 -10 34 -10 83 0 88 13
121 54 137 30 12 206 12 206 0z m3465 -210 c4 -6 -33 -10 -104 -10 -67 0 -111
4 -111 10 0 6 41 10 104 10 59 0 108 -4 111 -10z"/>
</g>
</svg>
